# xmcd
#
# Track frame offsets:
#	150
#	9937
#	20079
#	30662
#	42303
#	55615
#	66401
#	78152
#	90344
#	97095
#	107162
#	117293
#	128705
#	138505
#	149108
#	160832
#	167032
#	183142
#	190798
#	199440
#	208622
#	213324
#	223394
#	233777
#	243996
#	254282
#	266161
#	276892
#	288940
#	299609
#	311615
#	320888
#
# Disc length: 4438 seconds
#
# Revision: 1
# Processed by: cddbd v1.5.2PL0 Copyright (c) Steve Scherf et al.
# Submitted via: audiograbber 1.83.01
#
DISCID=ee115420
DTITLE=Various Artist - Golden Memories, Vol. 1 - The Golden Years of Country
DYEAR=1960
DGENRE=Country
TTITLE0=Hank Locklin - Send Me the Pillow You Dream On
TTITLE1=Dottie West - Walking in the Dark
TTITLE2=Clyde Moody - Nobody's Business
TTITLE3=Rose Lee Maphis - I've Come to Take You Home
TTITLE4=Red Sovine - That's When She Started to Stop Loving You
TTITLE5=Texas Ruby - Shanty Street
TTITLE6=June Stearns - Just Another Song Now
TTITLE7=Jimmie Skinner - I Found My Girl in the USA
TTITLE8=Johnny Bond and Cowboy Copas - Family Man
TTITLE9=George Jones - Why Baby Why
TTITLE10=Glenda Raye - You Sent Her an Orchid
TTITLE11=J.David Sloan - She Even Woke Me Up to Say Goodbye
TTITLE12=Lois Williams - A Girl Named Sam
TTITLE13=Red Sovine - I Know You're Married But I Love You Still
TTITLE14=Jonie Mosby - Makin' Believe
TTITLE15=Nashville Banjos - Cotton Eyed Joe
TTITLE16=Lulu Belle Wiseman - I'll Be All Smiles Tonight
TTITLE17=Benny Martin - Tennessee Rag
TTITLE18=Betty Amos - 18 Wheels A Rollin'
TTITLE19=Arthur Smith - Bonaparte's Retreat
TTITLE20=Cousin Minnie Pearl - Columbus Stockade
TTITLE21=Curly Fox - Model T and the Train Race
TTITLE22=Margie Singleton - It's Better to Know
TTITLE23=Jimmy Dean - Happy Child
TTITLE24=Molly O'Day - Livin' the Right Life
TTITLE25=Billie Morgan - Live to Live
TTITLE26=Patsy Montana - Wabash Cannonball
TTITLE27=Red Sovine - I'm an Old Pipeliner
TTITLE28=Polly Hutt - Why Buy the Cow
TTITLE29=Willie Brothers - Private Lee from Tennessee
TTITLE30=Ramona Jones - Down by the River
TTITLE31=Texas Ruby - Big Silver Tears
EXTD=
EXTT0=
EXTT1=
EXTT2=
EXTT3=
EXTT4=
EXTT5=
EXTT6=
EXTT7=
EXTT8=
EXTT9=
EXTT10=
EXTT11=
EXTT12=
EXTT13=
EXTT14=
EXTT15=
EXTT16=
EXTT17=
EXTT18=
EXTT19=
EXTT20=
EXTT21=
EXTT22=
EXTT23=
EXTT24=
EXTT25=
EXTT26=
EXTT27=
EXTT28=
EXTT29=
EXTT30=
EXTT31=
PLAYORDER=
